<?xml version="1.0" standalone="no"?><!DOCTYPE svg PUBLIC "-//W3C//DTD SVG 1.1//EN" "http://www.w3.org/Graphics/SVG/1.1/DTD/svg11.dtd" ><svg xmlns="http://www.w3.org/2000/svg"><metadata></metadata><defs><font id="Founder:FZHanZhenGuangBiaoS-GB	Regular" horiz-adv-x="256"><font-face font-family="FZHanZhenGuangBiaoS-GB" font-weight="400" font-stretch="normal" units-per-em="256" panose-1="2 0 0 0 0 0 0 0 0 0" ascent="229" descent="-80" x-height="0" bbox="1 -36 258 208" underline-thickness="12" underline-position="-68" unicode-range="U+0027-9b42" /><missing-glyph horiz-adv-x="256" d="M57 194 l0 -144 l-41 0 l0 144 l41 0 ZM57 23 l0 -40 l-41 0 l0 40 l41 0 Z" /><glyph glyph-name="" unicode="&#39;" d="M16 194 l30 0 l-5 -66 l-30 0 l5 66 Z" /><glyph glyph-name="" unicode="0" d="M153 147 l0 -112 q-1 -47 -49 -48 l-40 0 q-47 2 -49 45 l0 113 q2 47 50 49 l39 0 q46 -3 49 -47 ZM113 39 l0 102 q-1 16 -18 17 l-23 0 q-16 -1 -17 -17 l0 -103 q1 -16 17 -17 l22 0 q18 1 19 18 Z" /><glyph glyph-name="" unicode="1" d="M104 194 l0 -207 l-41 0 l0 207 l41 0 Z" /><glyph glyph-name="" unicode="2" d="M148 21 l0 -34 l-129 0 l0 85 q2 33 37 35 l52 0 l0 29 q-2 21 -26 22 l-63 0 l0 36 l89 0 q39 -1 40 -36 l0 -54 q-2 -31 -35 -33 l-54 0 l0 -50 l89 0 Z" /><glyph glyph-name="" unicode="3" d="M147 55 l0 -37 q-1 -30 -35 -31 l-95 0 l0 34 l90 0 l0 30 q-3 19 -27 21 l-43 0 l0 36 l70 0 l0 28 q-3 20 -28 22 l-62 0 l0 36 l91 0 q38 -1 39 -36 l0 -35 q0 -22 -23 -34 q22 -9 23 -34 Z" /><glyph glyph-name="" unicode="4" d="M97 194 l40 0 l0 -114 l17 0 l0 -36 l-17 0 l0 -57 l-40 0 l0 40 q-3 15 -28 17 l-27 0 q-33 0 -32 25 q0 4 3 14 l32 111 l40 0 l-33 -114 l45 0 l0 114 Z" /><glyph glyph-name="" unicode="5" d="M147 194 l0 -36 l-88 0 l0 -43 l47 0 q39 -1 41 -37 l0 -54 q-1 -36 -43 -37 l-85 0 l0 34 l88 0 l0 35 q-3 21 -28 23 l-60 0 l0 115 l128 0 Z" /><glyph glyph-name="" unicode="6" d="M154 74 l0 -50 q-2 -35 -42 -37 l-60 0 q-37 1 -38 37 l0 123 q0 47 47 47 l85 0 l0 -36 l-92 0 l0 -43 l59 0 q40 -1 41 -41 ZM114 21 l0 36 q-2 20 -27 22 l-33 0 l0 -58 l60 0 Z" /><glyph glyph-name="" unicode="7" d="M147 151 l-57 -164 l-43 0 l61 171 l-93 0 l0 36 l103 0 q32 -1 33 -27 q0 -6 -4 -16 Z" /><glyph glyph-name="" unicode="8" d="M154 58 l0 -35 q1 -36 -42 -36 l-57 0 q-43 0 -42 36 l0 35 q1 23 21 33 q-21 9 -21 33 l0 31 q2 37 39 39 l65 0 q35 -3 37 -38 l0 -32 q0 -21 -20 -33 q20 -11 20 -33 ZM88 158 l-35 0 l0 -48 l61 0 l0 27 q-2 20 -26 21 ZM88 73 l-35 0 l0 -52 l61 0 l0 32 q-2 18 -26 20 Z" /><glyph glyph-name="" unicode="9" d="M155 152 l0 -124 q0 -41 -47 -41 l-83 0 l0 34 l90 0 l0 43 l-65 0 q-37 0 -37 33 l0 54 q2 41 42 43 l55 0 q44 -2 45 -42 ZM84 158 l-31 0 l0 -58 l62 0 l0 34 q-3 22 -31 24 Z" /><glyph glyph-name="" unicode="i" d="M55 194 l0 -207 l-41 0 l0 207 l41 0 Z" /><glyph glyph-name="" unicode="m" d="M213 194 l0 -207 l-40 0 l0 157 l-35 -157 l-50 0 l-35 157 l0 -157 l-40 0 l0 207 l40 0 q29 -2 36 -31 l24 -124 l24 123 q8 30 36 32 l40 0 Z" /><glyph glyph-name="" unicode="s" d="M139 72 l0 -50 q-1 -34 -42 -35 l-85 0 l0 34 l87 0 l0 28 q-2 21 -31 23 l-20 0 q-37 0 -37 33 l0 54 q1 35 40 35 l88 0 l0 -36 l-88 0 l0 -50 l49 0 q38 -1 39 -36 Z" /><glyph glyph-name="" unicode="s" d="M134 141 l0 -36 l-81 0 l0 -24 l47 0 q33 -1 34 -32 l0 -34 q0 -28 -34 -28 l-87 0 l0 34 l81 0 l0 8 q-2 15 -23 16 l-27 0 q-30 1 -31 27 l0 40 q0 29 32 29 l89 0 Z" /><glyph glyph-name="" unicode="~" d="M125 114 l0 -8 q0 -39 -29 -39 q-13 0 -22 5 q-2 1 -6 3 q-15 8 -22 8 q-11 -1 -12 -12 l0 -5 l-23 0 l0 7 q1 40 31 40 q10 0 20 -6 q17 -10 27 -10 q13 0 13 11 l0 6 l23 0 Z" /><glyph glyph-name="" unicode="&#x4e00;" d="M10 105 l242 0 l0 -14 q0 -24 -25 -24 l-217 0 l0 38 Z" /><glyph glyph-name="" unicode="&#x4e2d;" d="M251 -7 l-98 0 l0 -26 l-43 0 l0 8 q0 18 -24 18 l-75 0 l0 150 q1 44 43 44 l56 0 l0 20 l43 0 l0 -20 l59 0 q39 0 39 -43 l0 -151 ZM110 24 l0 105 q1 25 -26 25 l-30 0 l0 -130 l56 0 ZM153 154 l0 -130 l55 0 l0 104 q0 26 -25 26 l-30 0 Z" /><glyph glyph-name="" unicode="&#x4eab;" d="M225 74 q21 -1 13 -25 l-53 -18 l67 0 l0 -9 q0 -20 -24 -20 l-69 0 l0 -11 q0 -24 -24 -24 l-62 0 l-1 24 l40 0 q6 0 6 6 l0 5 l-108 0 l0 29 l108 0 l0 2 l36 14 l-139 0 l0 27 l210 0 ZM201 155 q41 0 41 -31 l0 -40 l-222 0 l0 40 q0 31 41 31 l140 0 ZM10 165 l0 32 l101 0 l0 10 l41 0 l0 -10 l100 0 l0 -32 l-242 0 ZM185 128 l-124 0 l0 -16 l140 0 l0 6 q0 10 -16 10 Z" /><glyph glyph-name="" unicode="&#x4efb;" d="M92 -33 l0 33 l59 0 l0 44 q0 25 -23 25 l-41 0 l0 33 l64 0 l0 39 q0 27 -24 27 l-36 0 l0 36 l155 0 l0 -18 q0 -18 -20 -18 l-33 0 l0 -66 l59 0 l0 -33 l-59 0 l0 -69 l59 0 l0 -14 q0 -19 -20 -19 l-140 0 ZM81 207 q-11 -58 -38 -93 l25 0 l0 -124 q0 -23 -22 -23 l-19 0 l0 132 l-17 -6 l0 50 q21 19 33 64 l38 0 Z" /><glyph glyph-name="" unicode="&#x5077;" d="M171 -16 q0 -17 -18 -17 l-18 0 l0 17 q0 16 -10 15 l-12 0 l0 -29 l-36 0 l0 112 q1 33 25 33 l44 0 q25 0 25 -31 l0 -100 ZM228 191 l24 -68 l-30 0 q-9 1 -15 7 l-88 0 q-7 -6 -16 -7 l-30 0 l24 68 q6 16 28 15 l75 0 q22 2 28 -15 ZM81 207 q-10 -57 -39 -93 l25 0 l0 -124 q0 -22 -27 -22 l-14 0 l0 132 l-16 -4 l0 50 q20 13 32 61 l39 0 ZM212 114 l35 0 l0 -123 q0 -9 -5 -16 q-6 -7 -15 -7 l-15 0 l0 146 ZM177 112 l26 0 l0 -144 l-26 0 l0 144 ZM130 158 l65 0 l-5 15 l-55 0 l-5 -15 ZM124 84 l-11 0 l0 -17 l22 0 l0 6 q0 12 -11 11 ZM124 41 l-11 0 l0 -17 l22 0 l0 5 q0 12 -11 12 Z" /><glyph glyph-name="" unicode="&#x5165;" d="M138 166 q-55 -154 -127 -199 l0 52 q54 65 83 150 l-46 0 l0 33 l100 0 q24 0 31 -22 l73 -213 l-47 0 l-61 189 q-3 8 -6 10 Z" /><glyph glyph-name="" unicode="&#x51c6;" d="M83 -33 l0 160 l-14 -14 l0 50 q21 24 27 41 l42 0 l-5 -18 l33 0 l0 21 l43 0 l0 -21 l43 0 l0 -34 l-43 0 l0 -30 l37 0 l0 -33 l-37 0 l0 -29 l38 0 l0 -33 l-38 0 l0 -27 l43 0 l0 -11 q0 -22 -20 -22 l-149 0 ZM50 -32 l-38 0 l6 163 l38 0 l-6 -163 ZM10 183 q0 9 7 15 q6 6 16 6 q9 0 15 -6 q7 -6 7 -15 q0 -9 -7 -15 q-7 -7 -15 -7 q-10 1 -16 7 q-7 6 -7 15 ZM126 122 l40 0 l0 15 q0 15 -20 15 l-20 0 l0 -30 ZM126 60 l40 0 l0 14 q0 15 -20 15 l-20 0 l0 -29 ZM126 0 l40 0 l0 13 q0 14 -20 14 l-20 0 l0 -27 Z" /><glyph glyph-name="" unicode="&#x51fa;" d="M162 -33 l-111 0 q-39 0 -39 34 l0 77 l42 0 l0 -78 l53 0 l0 63 q0 28 -29 28 l-33 0 q-33 1 -33 36 l0 73 l43 0 l0 -73 l52 0 l0 79 l46 0 l0 -79 l48 0 l0 73 l43 0 l0 -74 q0 -35 -37 -35 l-54 0 l0 -91 l34 0 q16 0 16 12 l0 66 l42 0 l0 -111 l-43 0 l0 9 q-10 -9 -40 -9 Z" /><glyph glyph-name="" unicode="&#x5206;" d="M219 195 l33 -83 l-48 0 l-21 52 q-4 9 -16 9 l-70 0 l0 34 l100 0 q15 0 22 -12 ZM46 205 l43 0 l-28 -81 q-6 -11 -24 -11 l-27 0 l36 92 ZM209 99 q33 1 33 -32 l0 -75 q0 -25 -25 -25 l-45 0 l0 33 l19 0 q7 0 7 5 l0 43 q0 15 -17 15 l-82 0 l-29 -95 l-48 0 l29 95 l-37 0 l0 36 l195 0 Z" /><glyph glyph-name="" unicode="&#x52a1;" d="M103 30 l-30 -63 l-53 0 l33 63 l-41 0 l0 31 l56 0 l8 13 l47 0 l-7 -13 l94 0 q34 0 34 -34 l0 -36 q0 -24 -24 -24 l-62 0 l0 31 l38 0 q6 0 6 4 l0 17 q0 11 -16 11 l-83 0 ZM52 119 q0 -4 7 -6 q8 -3 15 -3 q11 0 18 2 q6 2 18 6 q-32 13 -51 6 q-7 -2 -7 -5 ZM57 207 l40 0 l-4 -7 l137 0 q22 -7 13 -33 l-55 -45 q15 -5 32 -7 l32 0 l0 -36 l-40 0 q-32 3 -46 9 l-18 9 l-38 -16 q-26 -6 -50 -3 q-19 0 -36 12 q-23 24 -2 50 q10 11 34 14 q27 4 55 -2 l41 -9 l35 26 l-118 0 q-25 -12 -51 -18 l0 38 q25 5 39 18 Z" /><glyph glyph-name="" unicode="&#x52b1;" d="M214 -33 l0 172 q0 15 -8 15 l-4 0 l-10 -187 l-37 0 l8 187 l-11 0 l0 15 l-102 0 l0 -17 l103 0 l0 -33 l-53 0 l0 -23 l26 0 q23 0 23 -25 l0 -86 q-1 -13 -20 -18 l-17 0 l0 84 q0 12 -9 11 l-3 0 l0 -94 l-39 0 l0 151 l-11 0 l0 -136 q-8 -16 -26 -16 l-13 0 l0 199 q0 37 34 37 l109 0 l0 -15 l12 0 l1 19 l39 0 l-1 -19 l20 0 q27 0 27 -37 l0 -160 q0 -24 -26 -24 l-12 0 Z" /><glyph glyph-name="" unicode="&#x5373;" d="M131 59 l-75 0 l0 -59 l30 0 q3 2 4 3 q2 3 2 6 l0 31 l41 0 l0 -72 l-41 0 l0 9 q-13 -8 -28 -9 l-24 0 q-27 0 -27 32 l0 172 q0 34 32 34 l54 0 q32 0 32 -33 l0 -114 ZM195 12 l7 0 q6 0 6 5 l0 142 q0 14 -11 14 l-11 0 l0 -206 l-43 0 l0 210 q0 30 34 30 l44 0 q27 0 28 -31 l0 -174 q-1 -23 -25 -23 l-29 0 l0 33 ZM56 147 l32 0 l0 15 q0 12 -14 12 l-18 0 l0 -27 ZM75 114 l-19 0 l0 -23 l32 0 l0 11 q0 12 -13 12 Z" /><glyph glyph-name="" unicode="&#x53d1;" d="M120 14 q0 -6 6 -11 q5 -3 14 -3 q13 3 25 14 q-12 13 -25 16 q-9 0 -14 -5 q-6 -3 -6 -11 ZM96 78 l-40 -111 l-46 0 l58 168 l-34 0 q-24 0 -23 32 l11 34 l43 0 l-10 -33 l22 0 l11 39 l43 0 l-10 -39 l131 0 l0 -33 l-139 0 l-7 -21 l119 0 q29 -9 22 -40 l-32 -59 l35 -47 l-54 0 l-11 15 l-17 -12 q-24 -6 -44 -3 q-21 4 -34 25 q-13 34 9 57 q31 27 71 7 l14 -10 l17 31 l-105 0 ZM160 189 q0 7 9 11 q9 6 21 5 q13 1 22 -5 q9 -4 9 -11 q0 -6 -9 -12 q-9 -5 -22 -5 q-12 0 -21 5 q-9 6 -9 12 Z" /><glyph glyph-name="" unicode="&#x540e;" d="M49 207 l197 0 l0 -18 q0 -21 -27 -22 l-165 0 l0 -26 l197 0 l0 -36 l-197 0 l0 -113 q-1 -26 -23 -24 l-19 0 l0 201 q0 36 37 38 ZM244 50 l0 -83 l-179 0 l0 82 q0 33 38 33 l108 0 q33 0 33 -32 ZM183 48 l-74 0 l0 -48 l90 0 l0 33 q0 15 -16 15 Z" /><glyph glyph-name="" unicode="&#x5427;" d="M111 174 q0 26 29 31 l75 0 q29 0 30 -30 l0 -124 l-95 0 l0 -46 q0 -5 6 -5 l96 0 l0 -16 q0 -17 -20 -17 l-93 0 q-28 0 -28 26 l0 181 ZM164 84 l0 77 q-2 11 -11 11 l-3 0 l0 -88 l14 0 ZM194 172 l0 -88 l13 0 l0 77 q-1 11 -9 11 l-4 0 ZM100 178 l0 -209 l-90 0 l0 208 q0 30 28 30 l38 0 q24 -1 24 -29 ZM45 173 l0 -172 l21 0 l0 161 q0 10 -9 11 l-12 0 Z" /><glyph glyph-name="" unicode="&#x54e6;" d="M251 52 l-25 -13 l11 -71 l-38 -1 l-8 55 l-19 -10 l0 40 l15 8 l-5 60 l-31 0 l0 -29 l18 5 l0 -39 l-18 -5 l0 -60 q-1 -9 -7 -16 q-5 -9 -14 -9 l-27 0 l-6 33 l7 0 q1 0 4 0 q2 0 3 1 q2 3 2 7 l0 29 l-17 -6 l0 39 l17 7 l0 43 l-17 0 l0 31 l17 0 l0 22 l-13 0 l0 32 l65 0 l0 -31 l-14 0 l0 -23 l27 0 l-5 56 l38 0 l3 -56 l12 0 l-3 35 l26 0 l2 -39 q4 -24 -14 -27 l-19 0 l5 -43 l28 16 l0 -41 ZM92 169 l0 -202 l-81 0 l0 201 q-1 35 27 35 l28 0 q27 -2 26 -34 ZM42 169 l0 -169 l19 0 l0 157 q0 12 -10 12 l-9 0 Z" /><glyph glyph-name="" unicode="&#x5668;" d="M187 86 q27 -11 65 -11 l0 -29 l-16 0 q8 -3 8 -21 l0 -58 l-104 0 l0 55 q0 27 26 27 l27 0 q-34 9 -58 30 q-28 -24 -57 -31 l23 0 q23 0 24 -27 l0 -54 l-105 0 l0 57 q0 19 9 21 l-19 -1 l0 30 q47 0 68 12 l-66 0 l0 30 l100 0 l0 11 l41 0 l0 -11 l51 0 l-2 8 l37 0 l8 -14 q5 -21 -15 -24 l-45 0 ZM123 179 l0 -46 l-105 0 l0 47 q0 27 29 27 l47 0 q29 0 29 -28 ZM245 180 l0 -47 l-104 0 l0 47 q1 27 31 27 l45 0 q28 0 28 -27 ZM177 19 l0 -22 l29 0 l0 9 q0 13 -12 13 l-17 0 ZM74 18 l-17 0 l0 -21 l30 0 l0 9 q0 12 -13 12 ZM76 179 l-21 0 l0 -18 l32 0 l0 8 q0 10 -11 10 ZM198 179 l-20 0 l0 -18 l31 0 l0 8 q0 10 -11 10 Z" /><glyph glyph-name="" unicode="&#x5956;" d="M145 26 l-4 -9 l38 0 q14 0 19 -6 l54 -44 l-62 0 l-53 43 q-31 -37 -121 -43 l0 35 q57 4 78 24 l-84 0 l0 35 l98 0 l0 10 l43 0 l0 -10 l98 0 l0 -35 l-104 0 ZM99 74 l-43 0 l0 20 l-43 -13 l0 42 l43 12 l0 19 l-44 0 l0 35 l44 0 l0 18 l43 0 l0 -133 ZM248 166 q-14 -66 -60 -87 l-78 0 l0 35 l34 0 l-18 34 l44 0 l15 -27 q0 1 1 1 q17 18 21 40 l-72 0 q-25 0 -25 24 l0 20 l45 0 l0 -11 l69 0 q26 -1 24 -29 Z" /><glyph glyph-name="" unicode="&#x5bb9;" d="M202 107 q8 1 15 -9 q15 -21 35 -21 l0 -34 l-22 3 q7 -6 7 -19 l0 -60 l-211 0 l0 58 q-1 17 7 21 l-23 -3 l0 34 q21 1 36 19 q8 12 21 11 l135 0 ZM55 167 l0 -17 l-41 0 l0 20 q0 27 28 27 l69 0 l0 10 l42 0 l0 -10 l66 0 q30 0 30 -27 l0 -20 l-42 0 q1 17 -20 17 l-132 0 ZM177 25 l-110 0 l0 -25 l129 0 l0 9 q0 16 -19 16 ZM74 154 l46 0 q-19 -42 -108 -49 l0 35 q39 -1 62 14 ZM191 154 q24 -18 60 -15 l0 -34 q-75 4 -107 49 l47 0 ZM184 78 l-107 0 q-7 -11 -19 -20 l150 0 q-12 6 -24 20 Z" /><glyph glyph-name="" unicode="&#x5c06;" d="M87 -33 l-42 0 l0 51 l-34 -23 l0 49 l34 26 l0 48 l-35 0 l0 44 l35 0 l0 45 l42 0 l0 -240 ZM190 75 l0 12 q-2 0 -6 -1 q-3 0 -4 0 l-83 0 l0 34 l37 0 l-19 32 l45 0 l16 -26 q0 0 2 -1 q21 18 30 40 l-85 0 q-25 1 -25 19 l0 23 l47 0 l0 -10 l84 0 q29 -4 21 -35 q-16 -42 -45 -66 l28 0 l0 -21 l19 0 l0 -34 l-19 0 l0 -50 q-4 -24 -31 -23 l-36 0 l0 30 l18 0 q6 1 6 8 l0 19 q0 16 -16 16 l-75 0 l0 34 l91 0 ZM131 33 q9 -1 13 -6 l16 -45 l-40 0 l-19 51 l30 0 Z" /><glyph glyph-name="" unicode="&#x5c0f;" d="M108 207 l42 0 l0 -215 q0 -9 -7 -16 q-7 -9 -19 -9 l-36 0 l0 33 l10 0 q1 0 4 0 q2 0 3 1 q3 3 3 7 l0 199 ZM26 182 l38 0 l-14 -195 l-40 0 l16 195 ZM233 182 l19 -195 l-40 0 l-17 195 l38 0 Z" /><glyph glyph-name="" unicode="&#x5c31;" d="M100 149 q30 0 30 -29 l0 -65 l-40 0 l0 -88 l-36 0 l0 70 q0 18 -17 18 l-22 0 l0 64 q0 30 31 30 l54 0 ZM198 140 l-18 -173 l-37 0 l19 173 l-20 0 l0 33 l23 0 l0 34 l37 0 l0 -34 l13 0 l-3 24 l32 0 l8 -39 q-1 -18 -17 -18 l-37 0 ZM204 122 l36 0 l0 -117 q0 -5 9 -5 l3 0 l0 -33 l-23 0 q-25 1 -25 24 l0 131 ZM10 159 l0 33 l45 0 l0 15 l38 0 l0 -15 l41 0 l0 -33 l-124 0 ZM95 45 l23 0 q9 -3 12 -12 l2 -65 l-32 0 l-5 77 ZM47 43 l-3 -75 l-30 0 l3 75 l30 0 ZM81 116 l-30 0 l0 -26 l44 0 l0 12 q0 14 -14 14 Z" /><glyph glyph-name="" unicode="&#x5e38;" d="M41 175 l-18 29 l45 0 q12 -33 45 -9 l0 12 l40 0 l0 -32 q26 3 39 28 l42 0 l-20 -28 l14 0 q24 1 24 -29 l0 -31 l-18 0 q5 -6 5 -18 l0 -41 l-86 0 l0 -12 l65 0 q28 0 29 -24 l0 -52 l-42 0 l0 31 q0 11 -17 11 l-35 0 l0 -43 l-42 0 l0 26 q0 17 -18 17 l-34 0 l0 -42 l-42 0 l0 50 q0 26 27 26 l67 0 q0 12 -19 12 l-68 0 l0 41 q0 12 6 18 l-20 0 l0 31 q0 29 31 29 ZM194 144 l-142 0 l0 -15 l158 0 l0 8 q0 7 -16 7 ZM180 100 l-114 0 l0 -16 l132 0 l0 6 q-1 10 -18 10 ZM113 175 l0 7 l-21 -7 l21 0 Z" /><glyph glyph-name="" unicode="&#x5e78;" d="M111 23 l0 6 q0 17 -27 17 l-66 0 l0 32 l42 0 l-12 28 l-38 0 l0 32 l101 0 l0 6 q0 16 -24 16 l-72 0 l0 32 l96 0 l0 15 l44 0 l0 -15 l92 0 l0 -32 l-92 0 l0 -22 l97 0 l0 -32 l-39 0 l-12 -28 l44 0 l0 -32 l-90 0 l0 -23 l96 0 l0 -31 l-96 0 l0 -25 l-44 0 l0 8 q0 17 -28 17 l-72 0 l0 31 l100 0 ZM168 106 l-74 0 q9 -28 37 -28 q26 0 37 28 Z" /><glyph glyph-name="" unicode="&#x60ef;" d="M48 207 l38 0 l0 -48 l9 0 l0 14 l13 0 l0 9 q0 23 26 23 l85 0 q25 0 25 -24 l0 -8 l8 0 l0 -29 l-8 0 l0 -32 l-136 0 l0 32 l-11 0 l0 -18 l-11 0 l0 -159 l-38 0 l0 240 ZM221 104 q26 0 26 -26 l0 -71 l-35 0 l39 -39 l-49 0 l-25 25 q-25 -25 -76 -25 l0 31 q39 1 51 21 l0 48 l42 0 l0 -57 l15 0 l0 53 q0 14 -12 14 l-59 0 l0 -71 l-38 0 l0 68 q0 29 32 29 l89 0 ZM10 194 l30 0 l0 -197 q0 -19 -15 -19 l-15 0 l0 216 ZM192 144 l0 -11 l16 0 l0 4 q1 7 -8 7 l-8 0 ZM160 133 l0 5 q0 6 -8 6 l-8 0 l0 -11 l16 0 ZM192 183 l0 -10 l16 0 l0 3 q1 7 -8 7 l-8 0 ZM160 173 l0 3 q0 7 -8 7 l-8 0 l0 -10 l16 0 Z" /><glyph glyph-name="" unicode="&#x6210;" d="M10 153 q0 35 36 35 l84 0 l-7 19 l44 0 l6 -19 l29 0 l-7 18 l41 0 l10 -23 q3 -30 -26 -28 l-38 0 l22 -73 l47 43 l0 -53 l-33 -30 l26 -75 l-44 0 l-16 47 l-36 -31 l0 50 l23 20 l-32 102 l-88 0 l0 -28 l46 0 q31 0 31 -34 l0 -102 q-1 -24 -26 -24 l-36 0 l0 33 l12 0 q9 0 9 5 l0 88 l-36 0 l0 -102 q-1 -24 -23 -24 l-18 0 l0 186 Z" /><glyph glyph-name="" unicode="&#x6253;" d="M252 203 l0 -36 l-30 0 l0 -175 q-1 -9 -7 -16 q-6 -9 -18 -9 l-60 0 l0 33 l33 0 q1 0 4 0 q2 0 3 1 q3 3 3 7 l0 131 q0 28 -29 28 l-35 0 l0 36 l136 0 ZM82 -8 q0 -9 -7 -16 q-6 -9 -18 -9 l-38 0 l0 30 l10 0 q7 1 10 3 q3 2 2 57 l-31 -8 l0 39 l31 8 l0 26 q2 26 -24 27 l-6 0 l0 33 l30 0 l0 25 l41 0 l0 -25 l22 0 l0 -33 l-22 0 l0 -40 l22 5 l0 -39 l-22 -6 l0 -77 Z" /><glyph glyph-name="" unicode="&#x62e9;" d="M102 205 l128 0 q27 -6 16 -33 l-28 -42 l34 -36 l-51 0 l-10 11 l-19 -9 q-26 -4 -41 -1 q-15 3 -27 15 q-15 21 5 45 q26 19 62 7 l17 -7 l11 19 l-97 0 l0 31 ZM77 -8 q0 -9 -7 -16 q-7 -9 -18 -9 l-34 0 l0 30 l9 0 q8 2 9 3 q3 2 2 57 l-28 -8 l0 39 l28 8 l0 28 q1 24 -20 25 l-7 0 l0 33 l27 0 l0 25 l39 0 l0 -25 l17 0 l0 -33 l-17 0 l0 -40 l17 5 l0 -39 l-17 -6 l0 -77 ZM155 89 l41 0 l0 -18 l52 0 l0 -33 l-52 0 l0 -15 l56 0 l0 -31 l-56 0 l0 -25 l-41 0 l0 13 q0 12 -16 12 l-42 0 l0 31 l58 0 l0 5 q0 10 -18 10 l-37 0 l0 33 l55 0 l0 18 ZM135 130 q0 -3 4 -6 q5 -3 11 -3 q11 3 19 10 q-5 5 -19 9 q-6 0 -11 -3 q-4 -3 -4 -7 Z" /><glyph glyph-name="" unicode="&#x65e5;" d="M245 -8 l0 -24 l-233 0 l0 202 q0 32 33 32 l171 0 q30 0 29 -33 l0 -177 ZM177 68 l-121 0 l0 -67 l145 0 l0 48 q0 19 -24 19 ZM56 104 l145 0 l0 41 q0 21 -24 21 l-121 0 l0 -62 Z" /><glyph glyph-name="" unicode="&#x6613;" d="M50 54 q-21 -18 -39 -28 l0 51 q15 11 18 23 l-17 0 l0 66 q0 42 44 41 l149 0 q44 0 44 -43 l0 -64 l-179 0 l-4 -13 l142 0 q43 0 44 -42 l0 -53 q-1 -25 -26 -25 l-44 0 l0 32 l19 0 q7 0 7 4 l0 26 q0 25 -27 25 l-131 0 ZM33 8 l24 34 l45 0 l-20 -27 q-28 -31 47 14 l17 12 l45 0 l-50 -73 l-47 0 l15 24 q-48 -24 -64 -22 q-33 6 -12 38 ZM56 165 l149 0 l0 4 q0 10 -17 10 l-132 0 l0 -14 ZM188 140 l-132 0 l0 -13 l149 0 l0 5 q0 8 -17 8 Z" /><glyph glyph-name="" unicode="&#x66f4;" d="M252 207 l0 -30 l-100 0 l0 -13 l63 0 q31 0 31 -29 l0 -79 l-94 0 l0 -12 q69 -10 100 -77 l-49 0 q-19 33 -61 39 q-27 -42 -123 -39 l0 33 q56 0 72 12 l-79 0 l0 35 l98 0 l0 9 l-95 0 l0 75 q0 33 34 33 l62 0 l0 1 q0 12 -19 12 l-82 0 l0 30 l242 0 ZM111 84 l0 4 q0 11 -16 11 l-38 0 l0 -15 l54 0 ZM152 99 l0 -15 l53 0 l0 4 q0 11 -15 11 l-38 0 ZM111 122 l0 3 q0 11 -16 11 l-38 0 l0 -14 l54 0 ZM152 136 l0 -14 l53 0 l0 3 q0 11 -15 11 l-38 0 Z" /><glyph glyph-name="" unicode="&#x6709;" d="M242 -2 q0 -31 -30 -31 l-63 0 l0 31 l46 0 q6 0 6 5 q0 12 -18 12 l-116 0 l0 -48 l-42 0 l0 123 l-14 -8 l0 47 q21 14 34 29 l-35 0 l0 34 l57 0 l10 15 l53 0 l-10 -15 l132 0 l0 -34 l-154 0 l-11 -17 l114 0 q41 0 41 -44 l0 -99 ZM183 62 l-116 0 l0 -18 l134 0 l0 4 q0 14 -18 14 ZM183 109 l-116 0 l0 -18 l134 0 l0 4 q0 15 -18 14 Z" /><glyph glyph-name="" unicode="&#x6765;" d="M37 57 l41 0 l-15 -88 l-43 0 l17 88 ZM10 71 l0 34 l42 0 l-22 38 l46 0 q18 -38 33 -38 l0 26 q0 23 -26 23 l-70 0 l0 34 l96 0 l0 19 l44 0 l0 -19 l94 0 l0 -34 l-94 0 l0 -49 q19 0 37 39 l46 0 l-21 -39 l34 0 l0 -34 l-96 0 l0 -104 l-44 0 l0 79 q0 25 -29 25 l-70 0 ZM183 58 l25 0 q14 2 20 -12 l15 -77 l-41 0 l-19 89 Z" /><glyph glyph-name="" unicode="&#x6807;" d="M123 201 l118 0 l0 -34 l-118 0 l0 34 ZM153 91 l-4 -119 l-37 0 l6 119 l35 0 ZM209 90 l21 0 q13 1 16 -14 l5 -103 l-37 0 l-5 117 ZM250 139 l0 -34 l-49 0 l0 -136 l-40 0 l0 116 q-1 21 -21 20 l-24 0 l0 34 l134 0 ZM116 154 l-32 0 l0 -187 l-39 0 l0 161 q0 25 -20 26 l-16 0 l0 33 l36 0 l0 20 l39 0 l0 -20 l32 0 l0 -33 ZM11 137 l11 0 q15 -3 15 -28 l0 -111 q0 -16 -13 -19 l-13 0 l0 158 ZM90 71 q0 21 3 37 q3 15 8 15 q5 0 8 -15 q3 -16 3 -37 q0 -22 -3 -37 q-3 -16 -8 -16 q-5 0 -8 16 q-3 15 -3 37 Z" /><glyph glyph-name="" unicode="&#x6b66;" d="M17 196 l118 0 l0 -32 l-118 0 l0 32 ZM10 114 l0 33 l148 0 l-10 60 l44 0 l8 -60 l17 0 l-11 49 l34 0 l11 -46 q7 -36 -26 -36 l-20 0 l44 -146 l-45 0 l-41 146 l-153 0 ZM80 102 l42 0 l0 -23 l34 0 l0 -33 l-34 0 l0 -44 l41 0 l0 -34 l-110 0 q-30 0 -31 32 l0 94 l36 0 l0 -92 l22 0 l0 100 Z" /><glyph glyph-name="" unicode="&#x73b0;" d="M190 43 l-2 -8 l24 0 l0 -31 q0 -5 7 -4 l33 0 l0 -32 l-55 0 q-24 0 -24 25 l0 18 q-15 -28 -51 -44 l-112 0 l0 33 l23 0 l0 50 q1 20 -14 20 l-6 0 l0 33 l20 0 l0 45 q0 21 -15 20 l-8 0 l0 34 l79 0 l0 -34 l-17 0 l0 -65 l16 0 l0 -33 l-16 0 l0 -70 l28 0 q33 10 49 54 l0 98 l41 0 l0 -109 ZM103 173 q0 34 34 34 l66 0 q34 0 34 -37 l0 -125 l-34 0 l0 109 q0 19 -19 19 l-47 0 l0 -128 l-34 0 l0 128 Z" /><glyph glyph-name="" unicode="&#x76ee;" d="M241 -30 l-225 0 l0 198 q0 36 34 36 l157 0 q34 0 34 -36 l0 -198 ZM178 36 l-120 0 l0 -35 l141 0 l0 16 q2 19 -21 19 ZM58 137 l141 0 l0 16 q0 18 -21 18 l-120 0 l0 -34 ZM58 70 l141 0 l0 15 q0 18 -21 18 l-120 0 l0 -33 Z" /><glyph glyph-name="" unicode="&#x7784;" d="M221 132 q25 1 26 -35 l0 -130 l-134 0 l0 132 q0 33 27 33 l81 0 ZM101 169 l0 -202 l-90 0 l0 202 q-1 35 29 35 l34 0 q27 0 27 -35 ZM196 190 l0 17 l36 0 l0 -17 l20 0 l0 -35 l-20 0 l0 -14 l-36 0 l0 5 q0 9 -13 9 l-20 0 l0 -14 l-36 0 l0 5 q0 9 -9 9 l-10 0 l0 35 l19 0 l0 17 l36 0 l0 -17 l33 0 ZM43 67 l25 0 l0 23 q0 13 -12 13 l-13 0 l0 -36 ZM56 34 l-13 0 l0 -34 l25 0 l0 20 q0 14 -12 14 ZM43 136 l25 0 l0 22 q0 12 -12 12 l-13 0 l0 -34 ZM165 0 l0 20 q0 13 -11 13 l-8 0 l0 -33 l19 0 ZM165 66 l0 22 q0 11 -11 11 l-8 0 l0 -33 l19 0 ZM196 33 l0 -33 l16 0 l0 22 q0 11 -9 11 l-7 0 ZM196 99 l0 -33 l16 0 l0 22 q0 11 -9 11 l-7 0 Z" /><glyph glyph-name="" unicode="&#x795e;" d="M252 157 l0 -166 l-48 0 l0 -24 l-38 0 l0 7 q0 17 -20 17 l-29 0 l0 168 q1 29 28 29 l21 0 l0 19 l38 0 l0 -19 l20 0 q28 0 28 -31 ZM84 37 l-9 41 l0 -92 q0 -19 -17 -19 l-21 0 l0 97 q0 0 -1 -1 q-9 -8 -25 -19 l0 46 q30 27 51 57 l-52 0 l0 33 l31 0 l0 27 l37 0 l0 -27 l19 0 q19 -13 8 -35 q-16 -28 -27 -38 l12 0 q8 -1 11 -7 l15 -63 l-32 0 ZM166 22 l0 38 q0 12 -11 12 l-4 0 l0 -50 l15 0 ZM204 72 l0 -50 l14 0 l0 37 q0 13 -12 13 l-2 0 ZM166 105 l0 35 q0 15 -11 14 l-4 0 l0 -49 l15 0 ZM204 154 l0 -49 l14 0 l0 35 q0 15 -12 14 l-2 0 ZM56 80 l18 0 l-4 17 q-3 -4 -9 -12 q-3 -3 -5 -5 Z" /><glyph glyph-name="" unicode="&#x8fd0;" d="M83 203 l155 0 l0 -35 l-155 0 l0 35 ZM250 143 l0 -35 l-94 0 l-32 -59 l73 0 q7 1 7 10 l-11 31 l42 0 l11 -47 q2 -28 -24 -28 l-117 0 q-30 4 -27 41 l32 52 l-37 0 l0 35 l177 0 ZM64 14 q2 -11 11 -14 l177 0 l0 -13 q0 -20 -24 -20 l-141 0 q-15 3 -23 15 q0 -15 -20 -15 l-20 0 l0 146 l-14 0 l0 34 l29 0 q25 0 25 -27 l0 -106 ZM17 184 q0 9 7 16 q7 7 16 7 q10 0 17 -7 q6 -7 6 -16 q0 -9 -6 -17 q-7 -6 -17 -6 q-9 0 -16 6 q-7 8 -7 17 Z" /><glyph glyph-name="" unicode="&#x9009;" d="M148 122 l0 10 q0 19 -19 19 l-19 0 q-12 -15 -33 -19 l0 38 q14 13 17 34 l35 0 l-4 -20 l23 0 l0 23 l42 0 l0 -23 l50 0 l0 -33 l-50 0 l0 -29 l57 0 l0 -33 l-31 0 l0 -39 q0 -6 6 -6 l27 0 l0 -33 l-50 0 q-25 0 -25 24 l0 39 q0 15 -13 15 l-9 0 l-27 -78 l-44 0 l27 78 l-28 0 l0 33 l68 0 ZM64 13 q2 -11 11 -13 l177 0 l0 -13 q0 -20 -24 -20 l-141 0 q-14 2 -23 15 q0 -15 -20 -15 l-20 0 l0 145 l-14 0 l0 33 l29 0 q25 0 25 -27 l0 -105 ZM17 182 q0 9 7 16 q7 7 16 7 q10 0 17 -7 q6 -7 6 -16 q0 -9 -6 -16 q-7 -7 -17 -7 q-9 0 -16 7 q-7 7 -7 16 Z" /><glyph glyph-name="" unicode="&#x957f;" d="M252 112 l0 -39 l-49 0 l47 -104 l-49 0 l-47 104 l-68 0 l0 -68 q0 -5 6 -5 l37 0 l0 -33 l-56 0 q-28 0 -28 29 l0 53 q0 24 -25 24 l-10 0 l0 39 l35 0 l0 95 l41 0 l0 -32 l154 19 l0 -40 l-154 -19 l0 -23 l166 0 Z" /><glyph glyph-name="" unicode="&#x9b42;" d="M95 179 q11 10 19 28 l38 0 l-6 -12 l65 0 q34 0 34 -32 l0 -114 l-56 0 l-3 -10 l22 0 l0 -38 q0 -4 7 -4 l37 0 l0 -30 l-58 0 q-26 0 -26 24 l0 17 l-7 -8 q-24 -29 -61 -33 l0 36 q33 12 47 46 l-40 0 l0 92 l-12 -9 l0 47 ZM97 -32 l-28 0 l0 15 q-5 -17 -17 -16 l-23 0 q-18 0 -19 20 l17 125 l-14 0 l0 33 l77 0 l0 -33 l-28 0 l-13 -112 l9 0 q6 0 6 4 l-4 70 l28 0 l9 -106 ZM17 200 l68 0 l0 -33 l-68 0 l0 33 ZM222 41 l17 0 l-8 -22 l8 0 q3 2 3 6 l0 4 l10 0 l0 -17 q0 -10 -12 -10 l-15 0 q-11 0 -11 13 l8 26 ZM157 136 l0 16 q0 12 -10 11 l-6 0 l0 -27 l16 0 ZM196 163 l0 -27 l15 0 l0 16 q0 12 -9 11 l-6 0 ZM157 81 l0 14 q0 10 -10 10 l-6 0 l0 -24 l16 0 ZM196 105 l0 -24 l15 0 l0 13 q0 11 -9 11 l-6 0 Z" /></font>
</defs>
</svg>
